<svg width="1440" height="2589" viewBox="0 0 1440 2589" fill="none" xmlns="http://www.w3.org/2000/svg">
<path d="M485.51 39.2971L-487.093 918.265L-639.954 1043.17C-663.655 1062.54 -664.549 1098.47 -641.841 1118.99L951.244 2558.7C970.282 2575.91 999.254 2575.91 1018.29 2558.7L1650.02 1987.79C1671.99 1967.94 1671.99 1933.45 1650.02 1913.6L938.12 1270.23C916.153 1250.38 916.153 1215.89 938.12 1196.04L1344.28 828.985C1366.24 809.133 1366.24 774.646 1344.28 754.793L552.559 39.2971C533.521 22.0916 504.548 22.0916 485.51 39.2971Z" fill="#7853F1" fill-opacity="0.03"/>
<path d="M680.51 30.2971L-292.093 909.265L-444.954 1034.17C-468.655 1053.54 -469.549 1089.47 -446.841 1109.99L1146.24 2549.7C1165.28 2566.91 1194.25 2566.91 1213.29 2549.7L1845.02 1978.79C1866.99 1958.94 1866.99 1924.45 1845.02 1904.6L1133.12 1261.23C1111.15 1241.38 1111.15 1206.89 1133.12 1187.04L1539.28 819.985C1561.24 800.133 1561.24 765.646 1539.28 745.793L747.559 30.2971C728.521 13.0916 699.548 13.0916 680.51 30.2971Z" fill="#F4F2FF" fill-opacity="0.6"/>
</svg>
