<svg width="1440" height="3093" viewBox="0 0 1440 3093" fill="none" xmlns="http://www.w3.org/2000/svg">
<path d="M1379.31 2699.72L2040.08 1637.01L2147.68 1481.85C2164.56 1457.51 2156.7 1423.91 2130.77 1409.59L333.847 417.188C310.553 404.323 281.265 411.957 267.214 434.555L-161.374 1123.85C-176.491 1148.16 -168.146 1180.18 -143.085 1194.02L662.004 1638.65C687.065 1652.49 695.409 1684.51 680.292 1708.82L403.076 2154.66C387.959 2178.98 396.304 2210.99 421.365 2224.83L1312.67 2717.08C1335.97 2729.95 1365.26 2722.31 1379.31 2699.72Z" fill="#7853F1" fill-opacity="0.03"/>
<path d="M1086.78 2775.96L1747.55 1713.25L1855.15 1558.09C1872.03 1533.75 1864.17 1500.15 1838.24 1485.83L41.318 493.431C18.0241 480.567 -11.2647 488.2 -25.3156 510.799L-453.903 1200.09C-469.02 1224.4 -460.675 1256.42 -435.614 1270.26L369.474 1714.89C394.535 1728.73 402.88 1760.75 387.763 1785.06L110.547 2230.91C95.4296 2255.22 103.774 2287.24 128.835 2301.08L1020.14 2793.33C1043.44 2806.19 1072.73 2798.56 1086.78 2775.96Z" fill="#F4F2FF" fill-opacity="0.6"/>
</svg>
